Coordinates
version=1
nRows=7
nColumns=40
inDegrees=yes

Units are S.I. units (second, meters, Newtons, ...)
Angles are in degrees.

endheader
time	pelvis_tilt	pelvis_list	pelvis_rotation	pelvis_tx	pelvis_ty	pelvis_tz	hip_flexion_r	hip_adduction_r	hip_rotation_r	knee_angle_r	knee_angle_r_beta	ankle_angle_r	subtalar_angle_r	mtp_angle_r	hip_flexion_l	hip_adduction_l	hip_rotation_l	knee_angle_l	knee_angle_l_beta	ankle_angle_l	subtalar_angle_l	mtp_angle_l	lumbar_extension	lumbar_bending	lumbar_rotation	arm_flex_r	arm_add_r	arm_rot_r	elbow_flex_r	pro_sup_r	wrist_flex_r	wrist_dev_r	arm_flex_l	arm_add_l	arm_rot_l	elbow_flex_l	pro_sup_l	wrist_flex_l	wrist_dev_l
     11.95250000	     -6.45563468	     -4.08872744	     -6.75529025	      0.97017721	      0.92555008	      0.47604383	     20.79501009	      3.64092887	     -3.48480509	     19.22525392	     19.22525392	      7.11686627	      3.20906157	     -2.94946422	     -0.96595581	     -6.75267411	    -12.17634995	     18.86385081	     18.86385081	     19.42140543	     -6.32939544	      1.19023723	     -7.56748416	      6.77154860	      1.48557620	     -9.58640688	    -14.15430082	    -18.11157953	     32.00830834	     46.29661487	      0.00000000	      0.00000000	     32.99688814	    -19.14061401	    -12.74441157	     82.09069833	     48.62480542	      0.00000000	      0.00000000
     11.97171429	     -6.51652797	     -4.20965297	     -6.21299480	      0.97043873	      0.92605873	      0.48018273	     20.24842529	      3.90611804	     -3.96242653	     18.94993381	     18.94993381	      7.46406359	      3.22824510	     -2.76180078	     -0.21443016	     -7.51851683	    -11.82378935	     20.79151920	     20.79151920	     18.97939381	     -6.48177518	      0.48219300	     -7.43849613	      6.86805232	      1.24607527	     -8.96661877	    -14.50686881	    -18.00456784	     32.72202499	     46.26412831	      0.00000000	      0.00000000	     32.10878096	    -19.07078003	    -12.72095065	     81.14825216	     48.59444892	      0.00000000	      0.00000000
     11.99092857	     -6.49304080	     -4.21475022	     -5.69763278	      0.97057801	      0.92660840	      0.48422511	     19.69235785	      4.04541972	     -4.36486606	     18.78416807	     18.78416807	      7.84272600	      3.23790710	     -2.61715118	      0.64895754	     -8.15217760	    -11.36421449	     23.01057562	     23.01057562	     18.23140355	     -6.87947462	     -0.52484095	     -7.39089982	      6.79910849	      1.09410949	     -8.34963229	    -14.85406376	    -17.82149382	     33.46509901	     46.22557503	      0.00000000	      0.00000000	     31.11356207	    -18.82697995	    -12.60671805	     79.97382805	     48.55209315	      0.00000000	      0.00000000
     12.01014286	     -6.39289332	     -4.22262358	     -5.15808725	      0.97061972	      0.92714296	      0.48814890	     19.04953692	      4.18206366	     -4.76622490	     18.61458840	     18.61458840	      8.26678831	      3.25131468	     -2.56835373	      1.76429386	     -8.80086956	    -10.65180476	     25.79035534	     25.79035534	     17.26660874	     -7.63904578	     -1.61292274	     -7.44894284	      6.74541533	      1.04423075	     -7.64079314	    -15.20825583	    -17.66223547	     34.11136710	     46.19405008	      0.00000000	      0.00000000	     30.07747353	    -18.50842942	    -12.41910956	     78.72801835	     48.50473764	      0.00000000	      0.00000000
     12.02935714	     -6.33890089	     -4.19468835	     -4.60892141	      0.97031030	      0.92736680	      0.49183379	     18.59178275	      4.25895887	     -5.19698178	     18.66051841	     18.66051841	      8.91307789	      3.32652194	     -1.96135768	      3.07125080	     -9.33453705	     -9.64675922	     28.47443976	     28.47443976	     13.66031418	    -10.11127756	     -8.24170758	     -7.39527321	      6.69415101	      1.33492144	     -7.84629495	    -15.90387145	    -15.74968787	     36.33618931	     45.98029649	      0.00000000	      0.00000000	     29.57417266	    -17.87668502	    -11.63533001	     75.71136413	     48.33420547	      0.00000000	      0.00000000
     12.04857143	     -6.25120696	     -4.17896735	     -4.02090019	      0.96979013	      0.92754551	      0.49536102	     18.10015619	      4.34637029	     -5.62536877	     18.66103497	     18.66103497	      9.32831196	      3.26039969	     -2.08876102	      4.95717489	     -9.94405993	     -8.50626112	     32.40127390	     32.40127390	     12.28296275	    -11.45516141	     -9.04281379	     -7.43832358	      6.63573761	      1.10109919	     -6.77843679	    -16.23371485	    -15.64193117	     36.82574770	     45.96307451	      0.00000000	      0.00000000	     28.23851513	    -17.60070419	    -11.39631561	     73.88411066	     48.26643323	      0.00000000	      0.00000000
     12.06778571	     -6.10854526	     -4.17568322	     -3.42475142	      0.96908525	      0.92759522	      0.49863101	     17.60345866	      4.42807857	     -6.07171353	     18.74858372	     18.74858372	      9.81662638	      3.20787587	     -2.16551779	      7.05597261	    -10.47250227	     -7.16232848	     36.64082800	     36.64082800	     10.54145048	    -13.16359533	     -9.91051100	     -7.51111246	      6.59610695	      1.09505894	     -5.75539864	    -16.62800968	    -15.26767075	     37.25868265	     45.93326917	      0.00000000	      0.00000000	     27.17945259	    -17.06265075	    -10.89496314	     71.13810351	     48.15869285	      0.00000000	      0.00000000
